<svg width="55" height="120" viewBox="0 0 55 120" fill="none" xmlns="http://www.w3.org/2000/svg">
<path d="M12.3555 69V0.559996H22.7955V69H12.3555ZM26.2755 69V0.559996H33.2355V69H26.2755ZM43.6755 69V0.559996H47.1555V69H43.6755ZM22.9115 103.916L36.3675 81.876H23.3755V79.092H39.9635V81.296L26.6235 103.336H38.8035C39.2675 103.336 39.6155 103.297 39.8475 103.22C40.0021 103.143 40.1955 103.027 40.4275 102.872H40.6595V106.004H22.9115V103.916Z" fill="white"/>
<rect y="77" width="52" height="29" fill="black"/>
<path d="M35.0525 103.05C35.0859 103.083 35.1025 103.25 35.1025 103.55C35.1025 103.817 35.1025 104.117 35.1025 104.45C35.1025 104.717 35.1025 105 35.1025 105.3C35.1359 105.567 35.1192 105.783 35.0525 105.95C34.9525 106.017 34.7859 106.033 34.5525 106C34.3525 105.967 34.1692 105.983 34.0025 106.05L28.6025 106.15H27.4025C27.1025 106.117 26.6192 106.1 25.9525 106.1C25.2859 106.133 24.8025 106.15 24.5025 106.15C24.2359 106.15 23.9525 106.15 23.6525 106.15C23.3859 106.183 23.1192 106.2 22.8525 106.2C22.2859 106.167 21.8692 106.133 21.6025 106.1C21.3359 106.067 20.9192 106.067 20.3525 106.1C19.9525 106.133 19.5525 106.167 19.1525 106.2C18.7859 106.233 18.4025 106.25 18.0025 106.25H15.8525C15.5859 106.25 15.2859 106.25 14.9525 106.25C14.6192 106.25 14.2192 106.267 13.7525 106.3C13.5859 106.233 13.2025 106.183 12.6025 106.15C12.0359 106.15 11.5359 106.15 11.1025 106.15C10.9359 106.183 10.7859 106.183 10.6525 106.15C10.5192 106.15 10.3692 106.15 10.2025 106.15C10.0692 105.983 9.98587 105.883 9.95254 105.85C9.95254 105.817 9.95254 105.733 9.95254 105.6C9.95254 105.333 9.96921 105.05 10.0025 104.75C10.0359 104.45 10.0359 104.167 10.0025 103.9C10.0025 103.733 9.96921 103.583 9.90254 103.45C9.86921 103.317 9.85254 103.217 9.85254 103.15C9.85254 103.117 9.91921 103.033 10.0525 102.9C10.1859 102.733 10.3359 102.567 10.5025 102.4C10.7025 102.2 10.9025 102.017 11.1025 101.85C11.3025 101.65 11.4859 101.5 11.6525 101.4L12.7525 100.2C13.1859 99.8 13.5692 99.3833 13.9025 98.95C14.2359 98.5167 14.6192 98.1 15.0525 97.7C15.4192 97.2667 15.8192 96.8 16.2525 96.3C16.7192 95.7667 17.1525 95.3 17.5525 94.9L19.1525 92.8L21.6025 90.1C21.7692 89.9333 21.9692 89.6833 22.2025 89.35C22.4692 89.0167 22.6525 88.75 22.7525 88.55C22.7859 88.4833 22.8859 88.35 23.0525 88.15C23.2525 87.9167 23.4359 87.6833 23.6025 87.45C23.8025 87.1833 23.9859 86.9333 24.1525 86.7C24.3192 86.4667 24.4192 86.3167 24.4525 86.25C24.4859 86.2167 24.6025 86.05 24.8025 85.75C25.0359 85.45 25.2692 85.1333 25.5025 84.8C25.7692 84.4667 26.0025 84.1667 26.2025 83.9C26.4359 83.6 26.5692 83.4167 26.6025 83.35L26.9025 82.7C26.9025 82.5333 26.8192 82.4667 26.6525 82.5C26.5192 82.5 26.4025 82.5 26.3025 82.5C25.8359 82.5 25.4025 82.5167 25.0025 82.55C24.6025 82.55 24.1692 82.55 23.7025 82.55C23.0359 82.55 22.4025 82.55 21.8025 82.55C21.2025 82.5167 20.6192 82.5 20.0525 82.5H14.7525C14.6859 82.5 14.6359 82.4833 14.6025 82.45C14.5025 82.4167 14.4525 82.35 14.4525 82.25C14.5525 81.8167 14.5692 81.35 14.5025 80.85C14.4359 80.35 14.4025 79.8833 14.4025 79.45C14.4025 79.1833 14.5525 79.05 14.8525 79.05H16.5025C16.7359 79.05 17.0525 79.05 17.4525 79.05C17.8525 79.0167 18.2692 79 18.7025 79C19.1359 79 19.5525 79 19.9525 79C20.3525 78.9667 20.6859 78.95 20.9525 78.95C21.2525 78.95 21.5525 78.9333 21.8525 78.9C22.1859 78.8333 22.5025 78.8167 22.8025 78.85C23.0692 78.85 23.3359 78.85 23.6025 78.85C23.9025 78.85 24.1859 78.8667 24.4525 78.9C24.9192 78.9 25.4025 78.9167 25.9025 78.95C26.4025 78.9833 26.9025 78.9833 27.4025 78.95C27.4692 78.95 27.5692 78.9667 27.7025 79C27.8692 79 27.9859 79 28.0525 79C28.5525 79.1 29.0525 79.1333 29.5525 79.1C30.0859 79.0667 30.6025 79.05 31.1025 79.05C31.4692 79.0833 31.8692 79.0833 32.3025 79.05C32.7359 79.0167 33.0692 79.0333 33.3025 79.1C33.6359 79.1667 33.9025 79.1833 34.1025 79.15C34.3025 79.1167 34.4859 79.1 34.6525 79.1H34.9025C34.9359 79.1333 34.9859 79.3 35.0525 79.6V82.4C34.7859 82.7 34.5859 82.9667 34.4525 83.2C34.3192 83.4 34.0859 83.6333 33.7525 83.9C33.6859 83.9667 33.4859 84.2167 33.1525 84.65C32.8525 85.0833 32.4859 85.5833 32.0525 86.15C31.6192 86.6833 31.1692 87.2333 30.7025 87.8C30.2692 88.3667 29.9192 88.85 29.6525 89.25C29.5525 89.4167 29.3525 89.6667 29.0525 90C28.7859 90.3333 28.4859 90.7 28.1525 91.1C27.8525 91.4667 27.5692 91.8333 27.3025 92.2C27.0359 92.5333 26.8525 92.7667 26.7525 92.9C26.3859 93.5333 25.9859 94.1333 25.5525 94.7C25.1192 95.2333 24.6859 95.7833 24.2525 96.35C23.9859 96.6167 23.7192 96.8833 23.4525 97.15C23.1859 97.4167 22.9192 97.6833 22.6525 97.95C22.4525 98.2167 22.2525 98.5 22.0525 98.8C21.8859 99.0667 21.7025 99.3333 21.5025 99.6C21.1025 100.067 20.7192 100.55 20.3525 101.05C20.0192 101.55 19.6692 101.983 19.3025 102.35C19.5692 102.417 19.8859 102.467 20.2525 102.5C20.6525 102.533 20.8859 102.533 20.9525 102.5C21.1192 102.433 21.3025 102.433 21.5025 102.5C21.9692 102.533 22.5192 102.583 23.1525 102.65C23.8192 102.717 24.3859 102.767 24.8525 102.8C25.2192 102.833 25.6525 102.85 26.1525 102.85C26.6525 102.85 27.0859 102.85 27.4525 102.85H27.9025C28.3692 102.883 28.8025 102.933 29.2025 103C29.6025 103.067 30.0359 103.067 30.5025 103C30.7692 102.967 31.0525 102.967 31.3525 103C31.6525 103 31.9359 103.017 32.2025 103.05H32.5025C32.9025 103.05 33.2025 103.05 33.4025 103.05C33.6359 103.017 33.9525 103 34.3525 103C34.4859 103 34.6359 103 34.8025 103C34.9692 103 35.0525 103.017 35.0525 103.05Z" fill="white"/>
<path d="M44.9507 76.224C44.7453 76.224 44.54 76.1947 44.3347 76.136C44.1587 76.048 43.9827 75.9453 43.8067 75.828C43.4253 75.652 43.2347 75.2707 43.2347 74.684C43.2347 74.42 43.2933 74.1267 43.4107 73.804C43.5573 73.4813 43.7773 73.1733 44.0707 72.88C44.276 72.6747 44.5253 72.572 44.8187 72.572C45.0827 72.572 45.332 72.6747 45.5667 72.88C45.684 72.9973 45.7573 73.188 45.7867 73.452C45.8453 73.6867 45.8747 73.9507 45.8747 74.244C45.8747 74.596 45.8453 74.948 45.7867 75.3C45.728 75.6227 45.6253 75.8573 45.4787 76.004C45.2733 76.1507 45.0973 76.224 44.9507 76.224ZM40.4627 93.516C39.3773 93.516 38.6293 93.2667 38.2187 92.768C37.808 92.2693 37.6027 91.668 37.6027 90.964C37.6027 90.6413 37.632 90.3187 37.6907 89.996C37.7493 89.6733 37.8227 89.3507 37.9107 89.028C37.6173 89.556 37.1627 90.172 36.5467 90.876C35.9307 91.5507 35.3587 92.0933 34.8307 92.504C34.7133 92.592 34.596 92.636 34.4787 92.636C34.3027 92.636 34.2147 92.5333 34.2147 92.328C34.2147 92.0933 34.3027 91.888 34.4787 91.712C35.7107 90.4213 36.6493 89.38 37.2947 88.588C37.94 87.7667 38.4387 87.0773 38.7907 86.52C39.1427 85.9627 39.48 85.4493 39.8027 84.98C40.0667 84.1293 40.3013 83.308 40.5067 82.516C40.7413 81.6947 41.0933 80.8587 41.5627 80.008C41.7093 79.744 42.0027 79.612 42.4427 79.612C42.736 79.612 43 79.6853 43.2347 79.832C43.4693 79.9787 43.5867 80.228 43.5867 80.58C43.5867 80.756 43.5427 80.9613 43.4547 81.196C43.132 82.1053 42.78 82.8827 42.3987 83.528C42.0467 84.144 41.5773 84.936 40.9907 85.904C40.3747 86.9013 39.876 87.8693 39.4947 88.808C39.1427 89.7467 38.9667 90.5387 38.9667 91.184C38.9667 91.5947 39.0547 91.932 39.2307 92.196C39.436 92.46 39.7293 92.592 40.1107 92.592C40.932 92.6213 41.5627 92.4893 42.0027 92.196C42.4427 91.8733 42.8093 91.5653 43.1027 91.272C43.484 90.8613 43.8067 90.48 44.0707 90.128C44.364 89.776 44.628 89.468 44.8627 89.204C45.0387 89.028 45.1267 89.0573 45.1267 89.292C45.1267 89.4387 45.0827 89.6293 44.9947 89.864C44.936 90.0987 44.8627 90.2747 44.7747 90.392C44.4813 90.8027 44.1293 91.2573 43.7187 91.756C43.3373 92.2547 42.8827 92.68 42.3547 93.032C41.8267 93.3547 41.196 93.516 40.4627 93.516ZM52.3238 85.992C52.3238 86.6667 52.2651 87.1653 52.1478 87.488C52.0598 87.8107 51.9278 88.0747 51.7518 88.28C51.6051 88.4853 51.4438 88.72 51.2678 88.984C51.0918 89.248 50.9451 89.644 50.8278 90.172C50.7398 90.6707 50.6958 91.404 50.6958 92.372C50.6958 92.7533 50.8424 93.0613 51.1358 93.296C51.4291 93.5307 51.7664 93.648 52.1478 93.648C52.3238 93.648 52.4118 93.7067 52.4118 93.824C52.4118 93.9707 52.2944 94.1467 52.0598 94.352C51.8544 94.5867 51.6638 94.704 51.4878 94.704C50.8424 94.704 50.3731 94.4547 50.0798 93.956C49.7864 93.428 49.6398 92.8707 49.6398 92.284C49.6398 91.316 49.6691 90.5533 49.7278 89.996C49.7864 89.4093 49.8451 88.8667 49.9038 88.368C49.9624 87.84 49.9771 87.1947 49.9478 86.432C49.9184 85.904 49.8451 85.4933 49.7278 85.2C49.6104 84.8773 49.3024 84.716 48.8038 84.716C48.5398 84.716 48.3491 84.76 48.2318 84.848C48.1438 84.936 48.0264 85.0827 47.8798 85.288C47.5571 85.7573 47.2784 86.4173 47.0438 87.268C46.8384 88.0893 46.6624 88.9693 46.5158 89.908C46.3984 90.8173 46.2811 91.6387 46.1638 92.372C46.0758 93.076 45.9878 93.5453 45.8998 93.78C45.8118 93.9853 45.6944 94.132 45.5478 94.22C45.4304 94.308 45.2984 94.352 45.1518 94.352C45.0344 94.352 44.9171 94.3227 44.7998 94.264C44.7118 94.2347 44.6384 94.2053 44.5798 94.176C44.4331 94.088 44.3598 93.9413 44.3598 93.736C44.3598 93.5307 44.4038 93.296 44.4918 93.032C44.6091 92.7387 44.6971 92.4747 44.7558 92.24C44.8144 92.0053 44.9024 91.5947 45.0198 91.008C45.1664 90.392 45.3131 89.7613 45.4598 89.116C45.6064 88.4413 45.7238 87.8693 45.8118 87.4C45.9291 86.9013 45.9878 86.652 45.9878 86.652C45.8411 86.652 45.6944 86.6667 45.5478 86.696C45.4011 86.696 45.2544 86.696 45.1078 86.696C44.6678 86.696 44.4478 86.52 44.4478 86.168C44.4478 85.9333 44.5358 85.5813 44.7118 85.112C44.8878 84.6427 45.2104 84.0267 45.6798 83.264C45.8264 83.0293 46.1198 82.736 46.5598 82.384C46.9998 82.032 47.3664 81.8853 47.6598 81.944C47.7771 81.8853 47.8798 81.856 47.9678 81.856C48.0558 81.856 48.1291 81.856 48.1878 81.856C48.5104 81.856 48.6864 81.9733 48.7158 82.208C48.7744 82.4133 48.7891 82.6333 48.7598 82.868C48.7304 83.0733 48.7451 83.1613 48.8038 83.132C49.2144 82.956 49.6251 82.868 50.0358 82.868C50.6518 82.868 51.1798 83.1173 51.6198 83.616C52.0891 84.0853 52.3238 84.8773 52.3238 85.992Z" fill="white"/>
</svg>
