<svg width="55" height="70" viewBox="0 0 84 76" fill="none" xmlns="http://www.w3.org/2000/svg">
<path d="M55.8416 39V25.413L54.5816 24.636V22.389L59.0966 21.15H62.6036V39H55.8416ZM58.8866 19.218L55.4426 15.753V15.018L58.8866 11.574H59.6846L63.2756 15.018V15.753L59.6846 19.218H58.8866ZM72.2838 39H65.5008V25.413L64.2408 24.636V22.389L68.7558 21.15H72.3258V23.859L72.5778 23.544C72.7458 23.32 72.9908 23.054 73.3128 22.746C73.6488 22.438 74.0198 22.137 74.4258 21.843C74.8318 21.535 75.3148 21.276 75.8748 21.066C76.4488 20.842 77.0088 20.73 77.5548 20.73C79.4728 20.73 80.8238 21.255 81.6078 22.305C82.4058 23.355 82.8048 25.112 82.8048 27.576C82.8048 27.66 82.8048 27.786 82.8048 27.954C82.7908 28.122 82.7838 28.255 82.7838 28.353V39H75.8538V27.744C75.8958 26.428 75.3358 25.77 74.1738 25.77C74.0898 25.77 74.0058 25.777 73.9218 25.791C73.8518 25.805 73.7818 25.819 73.7118 25.833C73.6558 25.847 73.5858 25.875 73.5018 25.917C73.4318 25.945 73.3688 25.973 73.3128 26.001C73.2568 26.015 73.1938 26.05 73.1238 26.106C73.0538 26.148 72.9978 26.183 72.9558 26.211C72.9138 26.239 72.8508 26.288 72.7668 26.358C72.6968 26.414 72.6408 26.456 72.5988 26.484C72.5708 26.512 72.5148 26.561 72.4308 26.631C72.3608 26.687 72.3118 26.729 72.2838 26.757V39Z" fill="#dda1d8"/>
<path d="M50.6051 68.1C50.6717 68.1667 50.7051 68.5 50.7051 69.1C50.7051 69.6333 50.7051 70.2333 50.7051 70.9C50.7051 71.4333 50.7051 72 50.7051 72.6C50.7717 73.1333 50.7384 73.5667 50.6051 73.9C50.4051 74.0333 50.0717 74.0667 49.6051 74C49.2051 73.9333 48.8384 73.9667 48.5051 74.1L37.7051 74.3H35.3051C34.7051 74.2333 33.7384 74.2 32.4051 74.2C31.0717 74.2667 30.1051 74.3 29.5051 74.3C28.9717 74.3 28.4051 74.3 27.8051 74.3C27.2717 74.3667 26.7384 74.4 26.2051 74.4C25.0717 74.3333 24.2384 74.2667 23.7051 74.2C23.1717 74.1333 22.3384 74.1333 21.2051 74.2C20.4051 74.2667 19.6051 74.3333 18.8051 74.4C18.0717 74.4667 17.3051 74.5 16.5051 74.5H12.2051C11.6717 74.5 11.0717 74.5 10.4051 74.5C9.73841 74.5 8.93841 74.5333 8.00508 74.6C7.67175 74.4667 6.90508 74.3667 5.70508 74.3C4.57175 74.3 3.57174 74.3 2.70508 74.3C2.37175 74.3667 2.07175 74.3667 1.80508 74.3C1.53841 74.3 1.23841 74.3 0.905078 74.3C0.638412 73.9667 0.471745 73.7667 0.405078 73.7C0.405078 73.6333 0.405078 73.4667 0.405078 73.2C0.405078 72.6667 0.438412 72.1 0.505078 71.5C0.571745 70.9 0.571745 70.3333 0.505078 69.8C0.505078 69.4667 0.438412 69.1667 0.305078 68.9C0.238412 68.6333 0.205078 68.4333 0.205078 68.3C0.205078 68.2333 0.338412 68.0667 0.605078 67.8C0.871745 67.4667 1.17174 67.1333 1.50508 66.8C1.90508 66.4 2.30508 66.0333 2.70508 65.7C3.10508 65.3 3.47175 65 3.80508 64.8L6.00508 62.4C6.87175 61.6 7.63841 60.7667 8.30508 59.9C8.97175 59.0333 9.73841 58.2 10.6051 57.4C11.3384 56.5333 12.1384 55.6 13.0051 54.6C13.9384 53.5333 14.8051 52.6 15.6051 51.8L18.8051 47.6L23.7051 42.2C24.0384 41.8667 24.4384 41.3667 24.9051 40.7C25.4384 40.0333 25.8051 39.5 26.0051 39.1C26.0717 38.9667 26.2717 38.7 26.6051 38.3C27.0051 37.8333 27.3717 37.3667 27.7051 36.9C28.1051 36.3667 28.4717 35.8667 28.8051 35.4C29.1384 34.9333 29.3384 34.6333 29.4051 34.5C29.4717 34.4333 29.7051 34.1 30.1051 33.5C30.5717 32.9 31.0384 32.2667 31.5051 31.6C32.0384 30.9333 32.5051 30.3333 32.9051 29.8C33.3717 29.2 33.6384 28.8333 33.7051 28.7L34.3051 27.4C34.3051 27.0667 34.1384 26.9333 33.8051 27C33.5384 27 33.3051 27 33.1051 27C32.1717 27 31.3051 27.0333 30.5051 27.1C29.7051 27.1 28.8384 27.1 27.9051 27.1C26.5717 27.1 25.3051 27.1 24.1051 27.1C22.9051 27.0333 21.7384 27 20.6051 27H10.0051C9.87175 27 9.77175 26.9667 9.70508 26.9C9.50508 26.8333 9.40508 26.7 9.40508 26.5C9.60508 25.6333 9.63841 24.7 9.50508 23.7C9.37175 22.7 9.30508 21.7667 9.30508 20.9C9.30508 20.3667 9.60508 20.1 10.2051 20.1H13.5051C13.9717 20.1 14.6051 20.1 15.4051 20.1C16.2051 20.0333 17.0384 20 17.9051 20C18.7717 20 19.6051 20 20.4051 20C21.2051 19.9333 21.8717 19.9 22.4051 19.9C23.0051 19.9 23.6051 19.8667 24.2051 19.8C24.8717 19.6667 25.5051 19.6333 26.1051 19.7C26.6384 19.7 27.1717 19.7 27.7051 19.7C28.3051 19.7 28.8717 19.7333 29.4051 19.8C30.3384 19.8 31.3051 19.8333 32.3051 19.9C33.3051 19.9667 34.3051 19.9667 35.3051 19.9C35.4384 19.9 35.6384 19.9333 35.9051 20C36.2384 20 36.4717 20 36.6051 20C37.6051 20.2 38.6051 20.2667 39.6051 20.2C40.6717 20.1333 41.7051 20.1 42.7051 20.1C43.4384 20.1667 44.2384 20.1667 45.1051 20.1C45.9717 20.0333 46.6384 20.0667 47.1051 20.2C47.7717 20.3333 48.3051 20.3667 48.7051 20.3C49.1051 20.2333 49.4717 20.2 49.8051 20.2H50.3051C50.3717 20.2667 50.4717 20.6 50.6051 21.2V26.8C50.0717 27.4 49.6717 27.9333 49.4051 28.4C49.1384 28.8 48.6717 29.2667 48.0051 29.8C47.8717 29.9333 47.4717 30.4333 46.8051 31.3C46.2051 32.1667 45.4717 33.1667 44.6051 34.3C43.7384 35.3667 42.8384 36.4667 41.9051 37.6C41.0384 38.7333 40.3384 39.7 39.8051 40.5C39.6051 40.8333 39.2051 41.3333 38.6051 42C38.0717 42.6667 37.4717 43.4 36.8051 44.2C36.2051 44.9333 35.6384 45.6667 35.1051 46.4C34.5717 47.0667 34.2051 47.5333 34.0051 47.8C33.2717 49.0667 32.4717 50.2667 31.6051 51.4C30.7384 52.4667 29.8717 53.5667 29.0051 54.7C28.4717 55.2333 27.9384 55.7667 27.4051 56.3C26.8717 56.8333 26.3384 57.3667 25.8051 57.9C25.4051 58.4333 25.0051 59 24.6051 59.6C24.2717 60.1333 23.9051 60.6667 23.5051 61.2C22.7051 62.1333 21.9384 63.1 21.2051 64.1C20.5384 65.1 19.8384 65.9667 19.1051 66.7C19.6384 66.8333 20.2717 66.9333 21.0051 67C21.8051 67.0667 22.2717 67.0667 22.4051 67C22.7384 66.8667 23.1051 66.8667 23.5051 67C24.4384 67.0667 25.5384 67.1667 26.8051 67.3C28.1384 67.4333 29.2717 67.5333 30.2051 67.6C30.9384 67.6667 31.8051 67.7 32.8051 67.7C33.8051 67.7 34.6717 67.7 35.4051 67.7H36.3051C37.2384 67.7667 38.1051 67.8667 38.9051 68C39.7051 68.1333 40.5717 68.1333 41.5051 68C42.0384 67.9333 42.6051 67.9333 43.2051 68C43.8051 68 44.3717 68.0333 44.9051 68.1H45.5051C46.3051 68.1 46.9051 68.1 47.3051 68.1C47.7717 68.0333 48.4051 68 49.2051 68C49.4717 68 49.7717 68 50.1051 68C50.4384 68 50.6051 68.0333 50.6051 68.1Z" fill="#dda1d8"/>
</svg>
